P1
# This is a pbm file
192 56
0000000111000111000000000000000111000010000000001111100000001111100000000111
0001111001111000100010000000001000100011011001111000110000000000100000000000
0000000000000000000000000000000000000000000000111110111110010100001000010100
0111000000001111100000001111100011101000100100100100101010101100000001100111
0011011010101001001000000001110000100000100000100000100010000001010000100011
1110000000101010101010111110011100111110111110001000110110001000110110000110
1000100111100111100111001111000111101010101101101010100101000000001010100111
0000100000010001000010000011111000100011111000000011111011111011111011111010
1010111110011100100010010100101010011010011100010000010010110110111110111110
0010001101100110100010100000000010001010100010001111101111101000001111100111
0001110000000011011010001011111011111011111011111001110010001001010010101010
1000001000010000010010110110111100011110101010110110001010000100000000101010
0010001010100001000100001111100101001111100010000000001000101101100111000111
0000100000100000100011011000100011011010100011111001000001011001110011000000
0110011100000000001010010010111110011100001000011100001000001000000000000000
1111100010000000000111000111000010000010000111000111000000001111100000001111
1001000000100011000011000010101010000000001000100011011000101001001011111000
1000001000001000000000000000000000000000000000000000000000000000000000000000
0000000000000000000000001111100000001111100000000000000000000000000010000000
0000000000000000000000000000110000000011111000000000000000000000000000000000
0000000000000000000000001000010100010100001000110000010000001100000100010000
0010000000000000000000000000000000000111000010000111001111100001001111100011
1011111001110001110000000000000000001000000001000001110000000000100001010001
0100011110110010101000001100001000001000101010001000000000000000000000000010
1000100110001000100000100011001000000100000000101000101000100000000000000001
0000000000100010001000000000100001010011111010100000010010100000100001000000
0100011100001000000000000000000000000100100110001000000010000100010100111100
1000000000101000101000100010000010000010001111100001000000100000000010000000
0001010001110000100001000001000001000000010011111011111000000011111000000000
1000101010001000011100001100100100000010111100000100011100011110000000000000
0100000000000000100011000000000010000000001111100010100100001010100000000100
0000010001110000100000110000000000000001000011001000100010000000001011111000
0010100010001000100010000010001000001000001000111110000100001000000000000000
0000000101001111001001101001000000000010000010001010100010000011000000000011
0010000010001000100010000010001000010010001010001001000010001000010000000000
1000000100000000001000000000000000001000000000010100001000000110011010000000
0001000100000010000000000010000000000011000000000111000111001111100111000001
0001110001110010000001110011100000000001000000001000000001000000100000000000
0000000000000000000000000000000000000000000000000000000000000000010000000000
0000000000000000000000000000000000000000000000000000000000000000000000000000
0000000000000000000000000000000001110000100011110001110011110011111011111001
1110100010011100001110100010100000100010100010011100111100011100111100011100
1111101000101000101000101000101000101111100111100000000111100010000000001000
1001010010001010001010001010000010000010001010001000100000010010010010000011
0110100010100010100010100010100010100010101010100010100010100010100010100010
0000100100001000000000100101000000001010101000101000101000001000101000001000
0010000010001000100000010010100010000010101011001010001010001010001010001010
0000001000100010100010100010010100010100000100010000010000000010100010000000
1011101000101111001000001000101111001111001000001111100010000001001100001000
0010101010101010001011110010001011110001110000100010001010001010101000100000
1000011100010000001000000010000000000000101100111110100010100000100010100000
1000001001101000100010000001001010001000001010101001101000101000001010101010
0000001000100010001010001010101001010000100001000001000000010000001000000000
0000100000100010100010100010100010100000100000100010100010001000100100100100
1000001000101000101000101000001001001001001000100010001000100101001010101000
1000100010000001000000001000001000000000000001111010001011110001110011110011
1110100000011110100010011100011000100010111110100010100010011100100000011010
1000100111000010000111000010000101001000100010001111100111100000000111100000
0011111000000000000000000000000000000000000000000000000000000000000000000000
0000000000000000000000000000000000000000000000000000000000000000000000000000
0000000000000000000000000000000000000000000000000110000000001000000000000000
1000000000010000000010000000100000010010000001100000000000000000000000000000
0000000000000000001000000000000000000000000000000000000000000100001000010000
0100000010000110000000001000000000000000100000000010100000001000000000000000
0010000000100000000000000000000000000000000000000000000000100000000000000000
0000000000000000000000001000001000001000101010011100001000011000101100011100
0110100111000010000111001011000110000001001001000010001101001011000111001011
0001101010110001111011111010001010001010001010001010001011111000100000100000
1000000100110110000100000100110010100010100110100010011100100110110010001000
0001001010000010001010101100101000101100101001101100101000000010001000101000
1010001001010010001000010001000000000000010000000010001000000001110010001010
0000100010111110001000100110100010001000000100110000001000101010100010100010
1100101001101000000111000010001000101000101010100010000111100010000010000010
0000100000000010001000000010010011001010001010011010000000100001101010001000
1000100100101000001000101010100010100010101100011010100000000010001010100110
0101001010100101000000100100000010000010000010000000001111100000000111101011
0001110001101001110000100000001010001001110001100010010001110010101010001001
1100100000000010100000111100000100011010001000010100100010100010111110000100
0010000100000000000000000000000000000000000000000000000000000000000000000000
0000000000000000000000000000000000000000000000000000000000000000000000000000
0000000000000000000000011100000000000000000000000000000000000000000000000000
0000000111111100000000000000000000000000000000000000000000000000000000000000
0000000000000000000000000000000000000000000000000000000000000000000000000000
0000000000000000000000000000000000000000000000111111111000000111111111111111
1110000001111111111111111110000001111111111111111110000001111111110000000000
0000000000000000000000000000000000000000000000000000000000000000000000000000
0000000001111111111000001000000000000000000100001000000000000000000100001111
1111111111111111000011111111110000000000000000000000000000000000000000000000
0000000000000000000000000000000000000000000111000111111111100001000000000000
0000000010010000000000000000000010011111111111111111111110011111111111000000
0000000011000000000000000011000000000000000011000000000000000011000000000000
0000001111001111111111100001001000001000000000001001000000000000001000001001
1101111101111111111110011111111111000000000000110011000000000000111111000000
0000001100110000000000001110110000000000000001111000111111111110000101010001
0111000011001001000001000000010100001001101011101000111100111001111110111100
0000000011000000110000000011111111110000000011000000110000000011010101110000
0000000011111001111111111110000100111111100010000000100100001010000010001000
1001110000000111011111111001111101011100000000110000000000110000111111111111
1100001100000000001100001110101010101100000000001111100111111111110000010001
0001000001000000100100010001000100000100100111101110111110111111100111101110
1100000011000000000000001111111111111111111111000000000000001111010101010101
0111000010011111101111111111110000010001000100000010000010010010000010111000
1110100111101110111111011111100111011111010000000011000000000011000011111111
1111110000110000000000110000111010101010110000011001111110111111111110000001
0011111110000001000010010000000000001000100010011100000001111110111110011111
1111110000000000110000001100000000111111111100000000110000001100000000110101
0111000000111001111110111111111110000001010100010100000011001001000000000000
1000100010011010111010111111001110011111111111000000001111110011111100001100
1111110011000011001100110011000011011110110111000111100111111011111111110000
0001001000001000000000001001000000000000111110001001110111110111111111111001
1111111111000000111111111111111111110000001100000011110000001100000011111010
1011101010110111100111111011111111110000000100000000000000000000100100000000
0000000000001001111111111111111111111001111111111100000000111111111111110000
1100000000001100001100000000001100001101010101011100011111011111101111111110
0000000010000000000000000001000010000000000000000001000011111111111111111111
0000111111111100000000001111111111000000001100000011000000001100000011000000
0011101010110000011111011111101111111110000000000111111111111111111000000111
1111111111111110000001111111111111111110000001111111110000000011001111110011
0000110011001100110000111111001111110000111011011110110001111101111111111111
1110000000000000000000000000000000000000000000000000000000000000000000000000
0000000000000000000000001100000011000000111100000011000000111111111111111111
1111010101110101011101111111111111111111111000001000000001001000000011001000
0000010011000000110011000000000000000111000110000000000000000000001100000000
0011000011000000000011000011111111111111000011101010101011000111111111111111
1111111000001000000001001000000011001000000001001100000011001111111111100011
0111011110000000000000000000000011000000110000000011000000110000000011111111
1100000000110101011100000011111111111111111111110001101000010100101000011100
1010000101001110000111001111111111110011011101111000000000000000000000000011
0011000000000000110011000000000000111111000000000000111011000000001111111111
1111111111111111100100100100101100101100100100110100111100111100111111111111
1011000001111000000000000000000000000000110000000000000000110000000000000000
1100000000000000001100000000000111111111111111111111111100010010010010110010
1100100100110100111100111100111111011111101111111111100000000000000000000000
0000000000000000000000000000000000000000000000000000000000000000000000001111
0011111110111111111000010010100001110010100001010011100001110011100001111010
1111101111111111000000000000000000000000000000000000000000000000000000000000
0000000000000000000000000000000000000000000011100001111111000001001000000011
0010000000010011000000110011000000110111011110111111111000000000000000000000
0000000000000000000000000000000000000000000000000000000000000000000000000000
0000000000000000000000000001001000000011001000000001001100000011001100000010
1111101110000000000000000000000000000000000000000000000000000000000000000000
000000000000000000000000000000000000
